<svg id="Capa_1" fill="#4877f1" enable-background="new 0 0 512.023 512.023" height="512" viewBox="0 0 512.023 512.023" width="512" xmlns="http://www.w3.org/2000/svg"><g><g><path d="m218.205 118.215c0-5.523-4.478-10-10-10h-40c-5.522 0-10 4.477-10 10s4.478 10 10 10h9.92v70c0 5.523 4.478 10 10 10s10-4.477 10-10v-70h10.08c5.522 0 10-4.477 10-10z"/><path d="m370.77 197.317c-.036-5.522-4.583-9.966-10.064-9.936-4.839.031-9.951.054-14.182.063v-68.462c0-5.523-4.478-10-10-10s-10 4.477-10 10v78.399c0 4.775 3.376 8.884 8.061 9.81.817.162 1.333.264 9.195.264 3.743 0 9.154-.023 17.055-.074 5.522-.035 9.97-4.541 9.935-10.064z"/><path d="m392.385 118.982v78.399c0 4.775 3.376 8.884 8.061 9.81.817.162 1.333.264 9.195.264 3.743 0 9.154-.023 17.055-.074 5.522-.036 9.971-4.542 9.936-10.064-.036-5.522-4.52-9.966-10.064-9.936-4.839.031-9.951.054-14.182.063v-68.462c0-5.523-4.478-10-10-10s-10.001 4.477-10.001 10z"/><path d="m304.301 173.42v-30.41c0-19.186-15.609-34.795-34.795-34.795h-.253c-19.186 0-34.795 15.609-34.795 34.795v30.41c0 19.186 15.609 34.795 34.795 34.795h.253c19.186 0 34.795-15.609 34.795-34.795zm-20 0c0 8.158-6.637 14.795-14.795 14.795h-.253c-8.158 0-14.795-6.637-14.795-14.795v-30.41c0-8.158 6.637-14.795 14.795-14.795h.253c8.158 0 14.795 6.637 14.795 14.795z"/><path d="m198.205 259.745c5.522 0 10-4.477 10-10s-4.478-10-10-10h-30c-5.522 0-10 4.477-10 10v80c0 5.523 4.478 10 10 10s10-4.477 10-10v-30.757h17.617c5.522 0 10-4.477 10-10s-4.478-10-10-10h-17.617v-19.243z"/><path d="m348.282 259.745c5.522 0 10-4.477 10-10s-4.478-10-10-10h-30c-5.522 0-10 4.477-10 10v80c0 5.523 4.478 10 10 10h30c5.522 0 10-4.477 10-10s-4.478-10-10-10h-20v-20h17.788c5.522 0 10-4.477 10-10s-4.478-10-10-10h-17.788v-20z"/><path d="m418.419 259.745c5.522 0 10-4.477 10-10s-4.478-10-10-10h-30c-5.522 0-10 4.477-10 10v80c0 5.523 4.478 10 10 10h30c5.522 0 10-4.477 10-10s-4.478-10-10-10h-20v-20h17.788c5.522 0 10-4.477 10-10s-4.478-10-10-10h-17.788v-20z"/><path d="m288.283 270.536c0-16.978-14.341-30.791-31.968-30.791h-18.259c-.004 0-.009.001-.013.001s-.008-.001-.013-.001c-5.522 0-10 4.477-10 10v80c0 5.523 4.478 10 10 10s10-4.477 10-10v-19.237l22.745 25.844c1.977 2.246 4.736 3.393 7.511 3.393 2.347 0 4.703-.821 6.603-2.493 4.146-3.649 4.549-9.968.9-14.114l-20.331-23.101c13.185-3.798 22.825-15.583 22.825-29.501zm-31.968 10.792c-2.169 0-5.2.012-8.167.028-.021-4.026-.049-17.387-.061-21.61h8.228c6.487 0 11.968 4.942 11.968 10.791s-5.481 10.791-11.968 10.791z"/><path d="m512.023 247.665c0-49.624-14.627-97.504-42.299-138.465-3.093-4.577-9.31-5.78-13.884-2.688-4.577 3.091-5.78 9.308-2.688 13.884 25.43 37.642 38.871 81.65 38.871 127.269 0 60.805-23.679 117.971-66.675 160.966-38.158 38.158-87.481 61.086-140.6 65.765 3.025-5.057 4.641-10.853 4.641-16.898 0-8.814-3.433-17.101-9.665-23.333l-39.262-39.261c-6.232-6.232-14.519-9.665-23.333-9.665-8.813 0-17.1 3.432-23.333 9.665l-10.627 10.628c-29.207-18.196-53.929-42.918-72.124-72.125l10.628-10.628c12.865-12.866 12.864-33.8-.001-46.666l-39.261-39.262c-6.233-6.232-14.52-9.665-23.333-9.665-8.208 0-15.957 2.98-22.017 8.422 2.917-56.275 26.213-108.769 66.354-148.91 42.995-42.996 100.161-66.674 160.966-66.674 45.82 0 89.991 13.551 127.737 39.189 4.571 3.102 10.789 1.915 13.892-2.654s1.915-10.788-2.653-13.891c-41.074-27.897-89.131-42.643-138.975-42.643-66.147 0-128.335 25.759-175.107 72.532-46.774 46.773-72.532 108.961-72.532 175.108 0 2.672.059 5.361.145 8.045l-7.2 7.2c-9.428 9.428-12.264 23.479-7.226 35.798 18.671 45.642 45.503 86.964 79.753 122.82 34.175 35.777 74.143 64.449 118.793 85.22 7.597 3.534 15.725 5.25 23.806 5.25 14.835 0 29.51-5.781 40.446-16.703 65.82-.227 127.666-25.956 174.232-72.521 46.772-46.774 72.531-108.962 72.531-175.109zm-302.58 240.95c-42.38-19.715-80.32-46.934-112.766-80.901-32.515-34.039-57.985-73.261-75.704-116.577-1.98-4.841-.859-10.369 2.856-14.084l26.059-26.059c2.454-2.455 5.719-3.807 9.19-3.807s6.735 1.352 9.19 3.807l39.261 39.262c5.068 5.068 5.068 13.314.001 18.381l-16.146 16.146c-3.199 3.199-3.852 8.148-1.592 12.067 21.521 37.314 52.619 68.413 89.934 89.933 3.919 2.26 8.868 1.608 12.067-1.592l16.146-16.146c2.455-2.455 5.719-3.807 9.19-3.807s6.736 1.352 9.19 3.807l39.262 39.262c2.455 2.455 3.808 5.719 3.808 9.19s-1.353 6.735-3.808 9.19l-14.438 14.438c-10.976 10.978-27.731 13.987-41.7 7.49z"/><circle cx="432.351" cy="79.699" r="10"/></g></g></svg>